<mxfile host="app.diagrams.net" agent="Mozilla/5.0 (Windows NT 10.0; Win64; x64) AppleWebKit/537.36 (KHTML, like Gecko) Chrome/131.0.0.0 Safari/537.36" version="26.0.5" pages="4">
  <diagram name="INICIO" id="S4uAkwXZYRdLAKP6U2rz">
    <mxGraphModel dx="880" dy="508" grid="1" gridSize="10" guides="1" tooltips="1" connect="1" arrows="1" fold="1" page="1" pageScale="1" pageWidth="827" pageHeight="1169" math="0" shadow="0">
      <root>
        <mxCell id="0" />
        <mxCell id="1" parent="0" />
        <mxCell id="r5DdrMv3bvs3g-zSQzgY-1" style="edgeStyle=orthogonalEdgeStyle;rounded=0;orthogonalLoop=1;jettySize=auto;html=1;" edge="1" parent="1" source="r5DdrMv3bvs3g-zSQzgY-2">
          <mxGeometry relative="1" as="geometry">
            <mxPoint x="424" y="120" as="targetPoint" />
          </mxGeometry>
        </mxCell>
        <mxCell id="r5DdrMv3bvs3g-zSQzgY-2" value="INICIO" style="strokeWidth=2;html=1;shape=mxgraph.flowchart.start_1;whiteSpace=wrap;" vertex="1" parent="1">
          <mxGeometry x="374" y="40" width="100" height="60" as="geometry" />
        </mxCell>
        <mxCell id="r5DdrMv3bvs3g-zSQzgY-3" value="FIM" style="strokeWidth=2;html=1;shape=mxgraph.flowchart.start_1;whiteSpace=wrap;" vertex="1" parent="1">
          <mxGeometry x="366" y="884" width="100" height="60" as="geometry" />
        </mxCell>
        <mxCell id="r5DdrMv3bvs3g-zSQzgY-30" style="edgeStyle=orthogonalEdgeStyle;rounded=0;orthogonalLoop=1;jettySize=auto;html=1;" edge="1" parent="1" target="r5DdrMv3bvs3g-zSQzgY-3">
          <mxGeometry relative="1" as="geometry">
            <mxPoint x="416" y="794" as="sourcePoint" />
          </mxGeometry>
        </mxCell>
        <mxCell id="4iFivY8JzeDTa6BSqD4W-4" style="edgeStyle=orthogonalEdgeStyle;rounded=0;orthogonalLoop=1;jettySize=auto;html=1;entryX=0.5;entryY=0;entryDx=0;entryDy=0;" edge="1" parent="1" source="4iFivY8JzeDTa6BSqD4W-2" target="Nx2AlFrjG7adWPgcioZs-1">
          <mxGeometry relative="1" as="geometry" />
        </mxCell>
        <mxCell id="4iFivY8JzeDTa6BSqD4W-2" value="INICIO" style="strokeWidth=2;html=1;shape=mxgraph.flowchart.start_1;whiteSpace=wrap;" vertex="1" parent="1">
          <mxGeometry x="365.5" y="450" width="100" height="60" as="geometry" />
        </mxCell>
        <mxCell id="4iFivY8JzeDTa6BSqD4W-6" style="edgeStyle=orthogonalEdgeStyle;rounded=0;orthogonalLoop=1;jettySize=auto;html=1;entryX=0.5;entryY=0;entryDx=0;entryDy=0;" edge="1" parent="1" source="4iFivY8JzeDTa6BSqD4W-3" target="4iFivY8JzeDTa6BSqD4W-5">
          <mxGeometry relative="1" as="geometry" />
        </mxCell>
        <mxCell id="4iFivY8JzeDTa6BSqD4W-3" value="OBTER_MEDIA" style="shape=process;whiteSpace=wrap;html=1;backgroundOutline=1;" vertex="1" parent="1">
          <mxGeometry x="331" y="624" width="170" height="60" as="geometry" />
        </mxCell>
        <mxCell id="4iFivY8JzeDTa6BSqD4W-8" style="edgeStyle=orthogonalEdgeStyle;rounded=0;orthogonalLoop=1;jettySize=auto;html=1;" edge="1" parent="1" source="4iFivY8JzeDTa6BSqD4W-5" target="4iFivY8JzeDTa6BSqD4W-7">
          <mxGeometry relative="1" as="geometry" />
        </mxCell>
        <mxCell id="4iFivY8JzeDTa6BSqD4W-5" value="VALORES_MAIORES" style="shape=process;whiteSpace=wrap;html=1;backgroundOutline=1;" vertex="1" parent="1">
          <mxGeometry x="330.75" y="714" width="170.5" height="60" as="geometry" />
        </mxCell>
        <mxCell id="4iFivY8JzeDTa6BSqD4W-7" value="FINALIZAR" style="shape=process;whiteSpace=wrap;html=1;backgroundOutline=1;" vertex="1" parent="1">
          <mxGeometry x="331" y="794" width="170" height="60" as="geometry" />
        </mxCell>
        <mxCell id="Nx2AlFrjG7adWPgcioZs-2" style="edgeStyle=orthogonalEdgeStyle;rounded=0;orthogonalLoop=1;jettySize=auto;html=1;" edge="1" parent="1" source="Nx2AlFrjG7adWPgcioZs-1" target="4iFivY8JzeDTa6BSqD4W-3">
          <mxGeometry relative="1" as="geometry" />
        </mxCell>
        <mxCell id="Nx2AlFrjG7adWPgcioZs-1" value="VAR_NUM =&amp;nbsp;{5,40,27,13,45}&lt;div&gt;&lt;span style=&quot;background-color: transparent; color: light-dark(rgb(0, 0, 0), rgb(255, 255, 255));&quot;&gt;MAIORES = 0&lt;/span&gt;&lt;/div&gt;&lt;div&gt;MEDIA = 0&lt;/div&gt;" style="rounded=1;whiteSpace=wrap;html=1;absoluteArcSize=1;arcSize=14;strokeWidth=2;" vertex="1" parent="1">
          <mxGeometry x="333" y="540" width="165" height="60" as="geometry" />
        </mxCell>
      </root>
    </mxGraphModel>
  </diagram>
  <diagram id="2iUcS4r27xE0pScsY5E_" name="OBTER_MEDIA">
    <mxGraphModel dx="880" dy="508" grid="1" gridSize="10" guides="1" tooltips="1" connect="1" arrows="1" fold="1" page="1" pageScale="1" pageWidth="827" pageHeight="1169" math="0" shadow="0">
      <root>
        <mxCell id="0" />
        <mxCell id="1" parent="0" />
        <mxCell id="XmA56sczDyzWgFVhhE3p-1" style="edgeStyle=orthogonalEdgeStyle;rounded=0;orthogonalLoop=1;jettySize=auto;html=1;exitX=0.5;exitY=1;exitDx=0;exitDy=0;exitPerimeter=0;" edge="1" parent="1" source="kAuvAOkErVqD3bxZbN_2-2" target="XmA56sczDyzWgFVhhE3p-8">
          <mxGeometry relative="1" as="geometry">
            <mxPoint x="388" y="170" as="sourcePoint" />
          </mxGeometry>
        </mxCell>
        <mxCell id="XmA56sczDyzWgFVhhE3p-3" style="edgeStyle=orthogonalEdgeStyle;rounded=0;orthogonalLoop=1;jettySize=auto;html=1;" edge="1" parent="1" source="XmA56sczDyzWgFVhhE3p-8" target="XmA56sczDyzWgFVhhE3p-10">
          <mxGeometry relative="1" as="geometry" />
        </mxCell>
        <mxCell id="XmA56sczDyzWgFVhhE3p-4" value="" style="edgeStyle=orthogonalEdgeStyle;rounded=0;orthogonalLoop=1;jettySize=auto;html=1;" edge="1" parent="1" source="XmA56sczDyzWgFVhhE3p-8" target="XmA56sczDyzWgFVhhE3p-10">
          <mxGeometry relative="1" as="geometry" />
        </mxCell>
        <mxCell id="XmA56sczDyzWgFVhhE3p-5" value="SIM" style="edgeLabel;html=1;align=center;verticalAlign=middle;resizable=0;points=[];" vertex="1" connectable="0" parent="XmA56sczDyzWgFVhhE3p-4">
          <mxGeometry x="0.2496" y="-1" relative="1" as="geometry">
            <mxPoint as="offset" />
          </mxGeometry>
        </mxCell>
        <mxCell id="XmA56sczDyzWgFVhhE3p-6" style="edgeStyle=orthogonalEdgeStyle;rounded=0;orthogonalLoop=1;jettySize=auto;html=1;entryX=1;entryY=0.5;entryDx=0;entryDy=0;" edge="1" parent="1" source="XmA56sczDyzWgFVhhE3p-8" target="XmA56sczDyzWgFVhhE3p-12">
          <mxGeometry relative="1" as="geometry">
            <mxPoint x="540" y="313" as="targetPoint" />
            <Array as="points">
              <mxPoint x="530" y="158" />
              <mxPoint x="530" y="278" />
            </Array>
          </mxGeometry>
        </mxCell>
        <mxCell id="XmA56sczDyzWgFVhhE3p-7" value="NÃƒO" style="edgeLabel;html=1;align=center;verticalAlign=middle;resizable=0;points=[];" vertex="1" connectable="0" parent="XmA56sczDyzWgFVhhE3p-6">
          <mxGeometry x="-0.8132" relative="1" as="geometry">
            <mxPoint as="offset" />
          </mxGeometry>
        </mxCell>
        <mxCell id="XmA56sczDyzWgFVhhE3p-8" value="C=0; C&amp;nbsp;&amp;lt; 5, C+1" style="rounded=1;whiteSpace=wrap;html=1;absoluteArcSize=1;arcSize=14;strokeWidth=2;" vertex="1" parent="1">
          <mxGeometry x="285" y="143" width="210" height="30" as="geometry" />
        </mxCell>
        <mxCell id="XmA56sczDyzWgFVhhE3p-9" style="edgeStyle=orthogonalEdgeStyle;rounded=0;orthogonalLoop=1;jettySize=auto;html=1;entryX=0;entryY=0.5;entryDx=0;entryDy=0;" edge="1" parent="1" source="XmA56sczDyzWgFVhhE3p-10" target="XmA56sczDyzWgFVhhE3p-8">
          <mxGeometry relative="1" as="geometry">
            <Array as="points">
              <mxPoint x="250" y="223" />
              <mxPoint x="250" y="158" />
            </Array>
          </mxGeometry>
        </mxCell>
        <mxCell id="XmA56sczDyzWgFVhhE3p-10" value="MEDIA = MEDIA + VAR_NUM[C]" style="rounded=1;whiteSpace=wrap;html=1;absoluteArcSize=1;arcSize=14;strokeWidth=2;" vertex="1" parent="1">
          <mxGeometry x="285" y="203" width="210" height="30" as="geometry" />
        </mxCell>
        <mxCell id="XmA56sczDyzWgFVhhE3p-11" style="edgeStyle=orthogonalEdgeStyle;rounded=0;orthogonalLoop=1;jettySize=auto;html=1;" edge="1" parent="1" source="XmA56sczDyzWgFVhhE3p-12" target="XmA56sczDyzWgFVhhE3p-13">
          <mxGeometry relative="1" as="geometry" />
        </mxCell>
        <mxCell id="XmA56sczDyzWgFVhhE3p-12" value="MEDIA = MEDIA / 5" style="rounded=1;whiteSpace=wrap;html=1;absoluteArcSize=1;arcSize=14;strokeWidth=2;" vertex="1" parent="1">
          <mxGeometry x="279" y="263" width="210" height="30" as="geometry" />
        </mxCell>
        <mxCell id="kAuvAOkErVqD3bxZbN_2-4" style="edgeStyle=orthogonalEdgeStyle;rounded=0;orthogonalLoop=1;jettySize=auto;html=1;" edge="1" parent="1" source="XmA56sczDyzWgFVhhE3p-13" target="kAuvAOkErVqD3bxZbN_2-3">
          <mxGeometry relative="1" as="geometry" />
        </mxCell>
        <mxCell id="XmA56sczDyzWgFVhhE3p-13" value="MEDIA" style="strokeWidth=2;html=1;shape=mxgraph.flowchart.display;whiteSpace=wrap;" vertex="1" parent="1">
          <mxGeometry x="334" y="323" width="100" height="40" as="geometry" />
        </mxCell>
        <mxCell id="kAuvAOkErVqD3bxZbN_2-2" value="OBTER_MEDIA" style="strokeWidth=2;html=1;shape=mxgraph.flowchart.start_1;whiteSpace=wrap;" vertex="1" parent="1">
          <mxGeometry x="340" y="50" width="100" height="60" as="geometry" />
        </mxCell>
        <mxCell id="kAuvAOkErVqD3bxZbN_2-3" value="FIM" style="strokeWidth=2;html=1;shape=mxgraph.flowchart.start_1;whiteSpace=wrap;" vertex="1" parent="1">
          <mxGeometry x="334" y="403" width="100" height="60" as="geometry" />
        </mxCell>
      </root>
    </mxGraphModel>
  </diagram>
  <diagram id="bEVhUJRnqvD_HsM2JWe8" name="VALORES_MAIORES">
    <mxGraphModel dx="1035" dy="598" grid="1" gridSize="10" guides="1" tooltips="1" connect="1" arrows="1" fold="1" page="1" pageScale="1" pageWidth="827" pageHeight="1169" math="0" shadow="0">
      <root>
        <mxCell id="0" />
        <mxCell id="1" parent="0" />
        <mxCell id="XeXvyR4ckJ50TluIodh8-1" style="edgeStyle=orthogonalEdgeStyle;rounded=0;orthogonalLoop=1;jettySize=auto;html=1;exitX=0.5;exitY=1;exitDx=0;exitDy=0;exitPerimeter=0;" edge="1" parent="1" target="XeXvyR4ckJ50TluIodh8-2" source="HHgjgw9Gvf86sHVs6gOJ-1">
          <mxGeometry relative="1" as="geometry">
            <mxPoint x="409" y="230" as="sourcePoint" />
          </mxGeometry>
        </mxCell>
        <mxCell id="XeXvyR4ckJ50TluIodh8-2" value="C=0; C&amp;nbsp;&amp;lt; 5, C+1" style="rounded=1;whiteSpace=wrap;html=1;absoluteArcSize=1;arcSize=14;strokeWidth=2;" vertex="1" parent="1">
          <mxGeometry x="304" y="255" width="210" height="30" as="geometry" />
        </mxCell>
        <mxCell id="XeXvyR4ckJ50TluIodh8-3" style="edgeStyle=orthogonalEdgeStyle;rounded=0;orthogonalLoop=1;jettySize=auto;html=1;exitX=1;exitY=0.5;exitDx=0;exitDy=0;exitPerimeter=0;" edge="1" parent="1" source="XeXvyR4ckJ50TluIodh8-5" target="XeXvyR4ckJ50TluIodh8-7">
          <mxGeometry relative="1" as="geometry" />
        </mxCell>
        <mxCell id="XeXvyR4ckJ50TluIodh8-4" value="SIM" style="edgeLabel;html=1;align=center;verticalAlign=middle;resizable=0;points=[];" vertex="1" connectable="0" parent="XeXvyR4ckJ50TluIodh8-3">
          <mxGeometry x="-0.3558" y="-3" relative="1" as="geometry">
            <mxPoint y="-2" as="offset" />
          </mxGeometry>
        </mxCell>
        <mxCell id="XeXvyR4ckJ50TluIodh8-5" value="VAR_NUM[C] &amp;gt; MEDIA" style="strokeWidth=2;html=1;shape=mxgraph.flowchart.decision;whiteSpace=wrap;" vertex="1" parent="1">
          <mxGeometry x="317.5" y="310" width="195" height="60" as="geometry" />
        </mxCell>
        <mxCell id="XeXvyR4ckJ50TluIodh8-6" style="edgeStyle=orthogonalEdgeStyle;rounded=0;orthogonalLoop=1;jettySize=auto;html=1;" edge="1" parent="1" source="XeXvyR4ckJ50TluIodh8-7" target="XeXvyR4ckJ50TluIodh8-8">
          <mxGeometry relative="1" as="geometry" />
        </mxCell>
        <mxCell id="XeXvyR4ckJ50TluIodh8-7" value="VAR_NUM[C]" style="strokeWidth=2;html=1;shape=mxgraph.flowchart.display;whiteSpace=wrap;" vertex="1" parent="1">
          <mxGeometry x="485" y="360" width="100" height="40" as="geometry" />
        </mxCell>
        <mxCell id="XeXvyR4ckJ50TluIodh8-8" value="MAIORES + 1" style="rounded=1;whiteSpace=wrap;html=1;absoluteArcSize=1;arcSize=14;strokeWidth=2;" vertex="1" parent="1">
          <mxGeometry x="480" y="415" width="110" height="30" as="geometry" />
        </mxCell>
        <mxCell id="XeXvyR4ckJ50TluIodh8-9" style="edgeStyle=orthogonalEdgeStyle;rounded=0;orthogonalLoop=1;jettySize=auto;html=1;exitX=0.5;exitY=1;exitDx=0;exitDy=0;exitPerimeter=0;entryX=0.006;entryY=0.587;entryDx=0;entryDy=0;entryPerimeter=0;" edge="1" parent="1" source="XeXvyR4ckJ50TluIodh8-10" target="XeXvyR4ckJ50TluIodh8-2">
          <mxGeometry relative="1" as="geometry">
            <mxPoint x="365" y="500" as="sourcePoint" />
            <mxPoint x="295" y="270" as="targetPoint" />
            <Array as="points">
              <mxPoint x="407" y="490" />
              <mxPoint x="237" y="490" />
              <mxPoint x="237" y="271" />
              <mxPoint x="275" y="271" />
              <mxPoint x="275" y="270" />
            </Array>
          </mxGeometry>
        </mxCell>
        <mxCell id="XeXvyR4ckJ50TluIodh8-10" value="" style="verticalLabelPosition=bottom;verticalAlign=top;html=1;shape=mxgraph.flowchart.on-page_reference;" vertex="1" parent="1">
          <mxGeometry x="397" y="455" width="19" height="19" as="geometry" />
        </mxCell>
        <mxCell id="XeXvyR4ckJ50TluIodh8-11" style="edgeStyle=orthogonalEdgeStyle;rounded=0;orthogonalLoop=1;jettySize=auto;html=1;entryX=1;entryY=0.5;entryDx=0;entryDy=0;entryPerimeter=0;" edge="1" parent="1" source="XeXvyR4ckJ50TluIodh8-8" target="XeXvyR4ckJ50TluIodh8-10">
          <mxGeometry relative="1" as="geometry">
            <Array as="points">
              <mxPoint x="535" y="465" />
            </Array>
          </mxGeometry>
        </mxCell>
        <mxCell id="XeXvyR4ckJ50TluIodh8-12" style="edgeStyle=orthogonalEdgeStyle;rounded=0;orthogonalLoop=1;jettySize=auto;html=1;entryX=0;entryY=0.5;entryDx=0;entryDy=0;entryPerimeter=0;exitX=0;exitY=0.5;exitDx=0;exitDy=0;exitPerimeter=0;" edge="1" parent="1" source="XeXvyR4ckJ50TluIodh8-5" target="XeXvyR4ckJ50TluIodh8-10">
          <mxGeometry relative="1" as="geometry">
            <Array as="points">
              <mxPoint x="265" y="340" />
              <mxPoint x="265" y="464" />
            </Array>
          </mxGeometry>
        </mxCell>
        <mxCell id="XeXvyR4ckJ50TluIodh8-13" value="NÃƒO" style="edgeLabel;html=1;align=center;verticalAlign=middle;resizable=0;points=[];" vertex="1" connectable="0" parent="XeXvyR4ckJ50TluIodh8-12">
          <mxGeometry x="-0.8472" y="2" relative="1" as="geometry">
            <mxPoint as="offset" />
          </mxGeometry>
        </mxCell>
        <mxCell id="XeXvyR4ckJ50TluIodh8-14" style="edgeStyle=orthogonalEdgeStyle;rounded=0;orthogonalLoop=1;jettySize=auto;html=1;entryX=0.5;entryY=0;entryDx=0;entryDy=0;entryPerimeter=0;" edge="1" parent="1" source="XeXvyR4ckJ50TluIodh8-2" target="XeXvyR4ckJ50TluIodh8-5">
          <mxGeometry relative="1" as="geometry" />
        </mxCell>
        <mxCell id="XeXvyR4ckJ50TluIodh8-15" value="SIM" style="edgeLabel;html=1;align=center;verticalAlign=middle;resizable=0;points=[];" vertex="1" connectable="0" parent="XeXvyR4ckJ50TluIodh8-14">
          <mxGeometry x="0.1813" y="2" relative="1" as="geometry">
            <mxPoint y="-12" as="offset" />
          </mxGeometry>
        </mxCell>
        <mxCell id="HHgjgw9Gvf86sHVs6gOJ-1" value="VALORES_MAIORES" style="strokeWidth=2;html=1;shape=mxgraph.flowchart.start_1;whiteSpace=wrap;" vertex="1" parent="1">
          <mxGeometry x="336" y="150" width="146" height="60" as="geometry" />
        </mxCell>
        <mxCell id="HHgjgw9Gvf86sHVs6gOJ-2" value="FIM" style="strokeWidth=2;html=1;shape=mxgraph.flowchart.start_1;whiteSpace=wrap;" vertex="1" parent="1">
          <mxGeometry x="333.5" y="525" width="146" height="60" as="geometry" />
        </mxCell>
        <mxCell id="HHgjgw9Gvf86sHVs6gOJ-3" style="edgeStyle=orthogonalEdgeStyle;rounded=0;orthogonalLoop=1;jettySize=auto;html=1;entryX=1;entryY=0.5;entryDx=0;entryDy=0;entryPerimeter=0;" edge="1" parent="1" source="XeXvyR4ckJ50TluIodh8-2" target="HHgjgw9Gvf86sHVs6gOJ-2">
          <mxGeometry relative="1" as="geometry">
            <Array as="points">
              <mxPoint x="620" y="270" />
              <mxPoint x="620" y="555" />
            </Array>
          </mxGeometry>
        </mxCell>
        <mxCell id="HHgjgw9Gvf86sHVs6gOJ-4" value="NÃƒO" style="edgeLabel;html=1;align=center;verticalAlign=middle;resizable=0;points=[];" vertex="1" connectable="0" parent="HHgjgw9Gvf86sHVs6gOJ-3">
          <mxGeometry x="-0.8321" y="-1" relative="1" as="geometry">
            <mxPoint as="offset" />
          </mxGeometry>
        </mxCell>
      </root>
    </mxGraphModel>
  </diagram>
  <diagram id="R8JW9avvjJ7qKze5e17A" name="FINALIZAR">
    <mxGraphModel dx="880" dy="508" grid="1" gridSize="10" guides="1" tooltips="1" connect="1" arrows="1" fold="1" page="1" pageScale="1" pageWidth="827" pageHeight="1169" math="0" shadow="0">
      <root>
        <mxCell id="0" />
        <mxCell id="1" parent="0" />
        <mxCell id="P1FfZPw8Vm6SyKMUI2MO-1" value="MAIORES" style="strokeWidth=2;html=1;shape=mxgraph.flowchart.display;whiteSpace=wrap;" vertex="1" parent="1">
          <mxGeometry x="340" y="500" width="100" height="40" as="geometry" />
        </mxCell>
        <mxCell id="wNXu5VjNhR6JDH4k7497-1" value="FINALIZAR&lt;span style=&quot;color: rgba(0, 0, 0, 0); font-family: monospace; font-size: 0px; text-align: start; text-wrap-mode: nowrap;&quot;&gt;%3CmxGraphModel%3E%3Croot%3E%3CmxCell%20id%3D%220%22%2F%3E%3CmxCell%20id%3D%221%22%20parent%3D%220%22%2F%3E%3CmxCell%20id%3D%222%22%20value%3D%22VALORES_MAIORES%22%20style%3D%22strokeWidth%3D2%3Bhtml%3D1%3Bshape%3Dmxgraph.flowchart.start_1%3BwhiteSpace%3Dwrap%3B%22%20vertex%3D%221%22%20parent%3D%221%22%3E%3CmxGeometry%20x%3D%22342%22%20y%3D%22150%22%20width%3D%22146%22%20height%3D%2260%22%20as%3D%22geometry%22%2F%3E%3C%2FmxCell%3E%3C%2Froot%3E%3C%2FmxGraphModel%3E&lt;/span&gt;" style="strokeWidth=2;html=1;shape=mxgraph.flowchart.start_1;whiteSpace=wrap;" vertex="1" parent="1">
          <mxGeometry x="340" y="400" width="100" height="60" as="geometry" />
        </mxCell>
        <mxCell id="wNXu5VjNhR6JDH4k7497-2" value="FIM" style="strokeWidth=2;html=1;shape=mxgraph.flowchart.start_1;whiteSpace=wrap;" vertex="1" parent="1">
          <mxGeometry x="340" y="585" width="100" height="60" as="geometry" />
        </mxCell>
        <mxCell id="wNXu5VjNhR6JDH4k7497-3" style="edgeStyle=orthogonalEdgeStyle;rounded=0;orthogonalLoop=1;jettySize=auto;html=1;entryX=0.5;entryY=0;entryDx=0;entryDy=0;entryPerimeter=0;" edge="1" parent="1" source="wNXu5VjNhR6JDH4k7497-1" target="P1FfZPw8Vm6SyKMUI2MO-1">
          <mxGeometry relative="1" as="geometry" />
        </mxCell>
        <mxCell id="wNXu5VjNhR6JDH4k7497-4" style="edgeStyle=orthogonalEdgeStyle;rounded=0;orthogonalLoop=1;jettySize=auto;html=1;entryX=0.5;entryY=0;entryDx=0;entryDy=0;entryPerimeter=0;" edge="1" parent="1" source="P1FfZPw8Vm6SyKMUI2MO-1" target="wNXu5VjNhR6JDH4k7497-2">
          <mxGeometry relative="1" as="geometry" />
        </mxCell>
      </root>
    </mxGraphModel>
  </diagram>
</mxfile>
